<svg id="Layer_5" data-name="Layer 5" xmlns="http://www.w3.org/2000/svg" viewBox="0 0 150.32 185.67">
  <defs>
    <style>
      .cls-1 {
        fill: #c52e1d;
      }

      .cls-1, .cls-2, .cls-3, .cls-4 {
        stroke: #000;
        stroke-miterlimit: 10;
      }

      .cls-2 {
        fill: #ff9574;
      }

      .cls-3 {
        fill: #c7c7c7;
      }

      .cls-4 {
        fill: #d1584a;
      }
    </style>
  </defs>
  <g>
    <g>
      <path class="cls-1" d="M274.66,241.67v30c0,9.85-33.43,17.83-74.66,17.83s-74.66-8-74.66-17.83v-30c0,6.29,13.65,11.82,34.26,15A271.11,271.11,0,0,0,200,259.5a271.11,271.11,0,0,0,40.4-2.83C261,253.49,274.66,248,274.66,241.67Z" transform="translate(-124.84 -104.33)"/>
      <path class="cls-1" d="M274.66,241.67c0,6.29-13.65,11.82-34.26,15A271.11,271.11,0,0,1,200,259.5a271.11,271.11,0,0,1-40.4-2.83c-20.61-3.18-34.26-8.71-34.26-15,0-9.85,33.43-17.84,74.66-17.84S274.66,231.82,274.66,241.67Z" transform="translate(-124.84 -104.33)"/>
    </g>
    <g>
      <path class="cls-2" d="M274.66,201.67v30c0,9.85-33.43,17.83-74.66,17.83s-74.66-8-74.66-17.83v-30c0,6.29,13.65,11.82,34.26,15A271.11,271.11,0,0,0,200,219.5a271.11,271.11,0,0,0,40.4-2.83C261,213.49,274.66,208,274.66,201.67Z" transform="translate(-124.84 -104.33)"/>
      <path class="cls-2" d="M274.66,201.67c0,6.29-13.65,11.82-34.26,15A271.11,271.11,0,0,1,200,219.5a271.11,271.11,0,0,1-40.4-2.83c-20.61-3.18-34.26-8.71-34.26-15,0-9.85,33.43-17.84,74.66-17.84S274.66,191.82,274.66,201.67Z" transform="translate(-124.84 -104.33)"/>
    </g>
    <g>
      <path class="cls-3" d="M274.66,162.67v30c0,9.85-33.43,17.83-74.66,17.83s-74.66-8-74.66-17.83v-30c0,6.29,13.65,11.82,34.26,15A271.11,271.11,0,0,0,200,180.5a271.11,271.11,0,0,0,40.4-2.83C261,174.49,274.66,169,274.66,162.67Z" transform="translate(-124.84 -104.33)"/>
      <path class="cls-3" d="M274.66,162.67c0,6.29-13.65,11.82-34.26,15A271.11,271.11,0,0,1,200,180.5a271.11,271.11,0,0,1-40.4-2.83c-20.61-3.18-34.26-8.71-34.26-15,0-9.85,33.43-17.84,74.66-17.84S274.66,152.82,274.66,162.67Z" transform="translate(-124.84 -104.33)"/>
    </g>
    <g>
      <path class="cls-4" d="M274.66,122.67v30c0,9.85-33.43,17.83-74.66,17.83s-74.66-8-74.66-17.83v-30c0,6.29,13.65,11.82,34.26,15A271.11,271.11,0,0,0,200,140.5a271.11,271.11,0,0,0,40.4-2.83C261,134.49,274.66,129,274.66,122.67Z" transform="translate(-124.84 -104.33)"/>
      <path class="cls-4" d="M274.66,122.67c0,6.29-13.65,11.82-34.26,15A271.11,271.11,0,0,1,200,140.5a271.11,271.11,0,0,1-40.4-2.83c-20.61-3.18-34.26-8.71-34.26-15,0-9.85,33.43-17.84,74.66-17.84S274.66,112.82,274.66,122.67Z" transform="translate(-124.84 -104.33)"/>
    </g>
  </g>
</svg>
