<svg id="frontend" xmlns="http://www.w3.org/2000/svg" viewBox="0 0 121.18 141.68"><defs><style>.cls-1{fill:#ff9574;}.cls-2{fill:#c7c7c7;}.cls-3{fill:#cc6347;}</style></defs><rect class="cls-1" x="171.52" y="111.24" width="3.12" height="20.25" rx="1.56" transform="translate(-173.76 120.69) rotate(-65.03)"/><rect class="cls-1" x="194.11" y="121.76" width="3.12" height="20.25" rx="1.56" transform="translate(-170.24 147.25) rotate(-65.03)"/><rect class="cls-1" x="188.2" y="105.55" width="3.12" height="20.25" rx="1.56" transform="translate(-97.19 -175.64) rotate(24.97)"/><rect class="cls-1" x="177.9" y="127.68" width="3.12" height="20.25" rx="1.56" transform="translate(-88.82 -169.22) rotate(24.97)"/><rect class="cls-1" x="172.93" y="124.55" width="1.77" height="11.48" rx="0.57" transform="translate(-52.8 231.86) rotate(-110.03)"/><rect class="cls-1" x="193.78" y="116.95" width="1.77" height="11.48" rx="0.57" transform="translate(-17.66 241.24) rotate(-110.03)"/><rect class="cls-1" x="179.74" y="110.41" width="1.77" height="11.48" rx="0.57" transform="translate(-192.61 -37.45) rotate(-20.03)"/><rect class="cls-1" x="187.41" y="131.46" width="1.77" height="11.48" rx="0.57" transform="translate(-199.35 -33.55) rotate(-20.03)"/><polygon class="cls-2" points="21.12 21.43 115.07 78.06 19.05 131.11 21.12 21.43"/><polygon class="cls-3" points="27.23 31.99 121.18 88.63 25.16 141.68 27.23 31.99"/></svg>