<svg xmlns="http://www.w3.org/2000/svg" width="287.552" height="42.987" viewBox="0 0 287.552 42.987">
  <g id="Group_10" data-name="Group 10" transform="translate(-1383.448 -30.506)">
    <g id="Twitter_colored_svg" transform="translate(1383.448 38.564)">
      <rect id="Rectangle_3" data-name="Rectangle 3" width="33.584" height="33.584" transform="translate(4.702 0.673)" fill="none"/>
      <path id="Path_1" data-name="Path 1" d="M13.519,82.916c16.222,0,25.094-13.439,25.094-25.094,0-.382,0-.762-.026-1.14a17.945,17.945,0,0,0,4.4-4.565A17.607,17.607,0,0,1,37.921,53.5,8.852,8.852,0,0,0,41.8,48.626a17.677,17.677,0,0,1-5.6,2.141,8.828,8.828,0,0,0-15.03,8.044A25.051,25.051,0,0,1,2.992,49.6,8.863,8.863,0,0,0,5.722,61.369a8.753,8.753,0,0,1-4-1.1v.112A8.849,8.849,0,0,0,8.8,69.023a8.807,8.807,0,0,1-3.982.151,8.848,8.848,0,0,0,8.24,6.125A17.7,17.7,0,0,1,2.1,79.082,17.94,17.94,0,0,1,0,78.954a24.971,24.971,0,0,0,13.519,3.955" transform="translate(0 -47.987)"/>
    </g>
    <g id="Behance2_glyph_svg" transform="translate(1552.271 34.535)">
      <path id="Path_2" data-name="Path 2" d="M15.607,124.031a9.673,9.673,0,0,0,2.115-.215,5,5,0,0,0,1.78-.727,3.648,3.648,0,0,0,1.227-1.367,4.754,4.754,0,0,0,.451-2.223,4.478,4.478,0,0,0-1.487-3.784,6.369,6.369,0,0,0-3.937-1.125H7.548v9.441h8.059Zm-.418-14.595a5.468,5.468,0,0,0,3.322-.96,3.605,3.605,0,0,0,1.288-3.119,4.075,4.075,0,0,0-.42-1.968,3.141,3.141,0,0,0-1.164-1.193,4.725,4.725,0,0,0-1.661-.6,10.161,10.161,0,0,0-1.942-.169H7.548v8.011h7.64Zm.976-13.852a21.008,21.008,0,0,1,4.473.435A9.741,9.741,0,0,1,24.1,97.434a6.64,6.64,0,0,1,2.239,2.615,9.237,9.237,0,0,1,.784,4.023,7.509,7.509,0,0,1-1.176,4.321,8.537,8.537,0,0,1-3.5,2.827,8.19,8.19,0,0,1,4.707,3.193,10.57,10.57,0,0,1,.553,10,8.745,8.745,0,0,1-2.713,3.1,11.94,11.94,0,0,1-3.9,1.779,17.473,17.473,0,0,1-4.483.577H0V95.584H16.165Z" transform="translate(0 -95.584)"/>
      <path id="Path_3" data-name="Path 3" d="M300.529,182.571a5.1,5.1,0,0,0-3.856-1.381,5.87,5.87,0,0,0-2.714.557,5.457,5.457,0,0,0-1.727,1.368,4.895,4.895,0,0,0-.914,1.75,7.766,7.766,0,0,0-.31,1.636H302.1A6.638,6.638,0,0,0,300.529,182.571Zm-7.836,13.045a6.949,6.949,0,0,0,7.972.458,4.384,4.384,0,0,0,1.822-2.2h6.006a11.4,11.4,0,0,1-4.428,6.407,12.89,12.89,0,0,1-7.188,1.932,14.319,14.319,0,0,1-5.3-.939,11.267,11.267,0,0,1-4.01-2.67,12.217,12.217,0,0,1-2.521-4.136,15.172,15.172,0,0,1-.891-5.292,14.558,14.558,0,0,1,.917-5.193,12.159,12.159,0,0,1,2.6-4.16,12.333,12.333,0,0,1,4.021-2.769,12.922,12.922,0,0,1,5.179-1.009,11.758,11.758,0,0,1,5.516,1.227,11.016,11.016,0,0,1,3.871,3.29,13.489,13.489,0,0,1,2.182,4.711,17.609,17.609,0,0,1,.475,5.527H291.008A6.955,6.955,0,0,0,292.694,195.615Z" transform="translate(-253.223 -167.282)"/>
      <rect id="Rectangle_4" data-name="Rectangle 4" width="13.898" height="3.383" transform="translate(36.388 2.301)"/>
    </g>
    <path id="Dribbble2_colored_svg" d="M21.494,0A21.494,21.494,0,1,0,42.987,21.494,21.5,21.5,0,0,0,21.494,0Zm14.2,9.908A18.273,18.273,0,0,1,39.84,21.33a43.351,43.351,0,0,0-12.775-.582c-.14-.3-.257-.63-.4-.956-.373-.886-.793-1.795-1.212-2.657,6.761-2.751,9.838-6.714,10.234-7.227ZM21.494,3.17A18.318,18.318,0,0,1,33.662,7.786c-.326.466-3.1,4.173-9.628,6.62A99.165,99.165,0,0,0,17.181,3.66,18.671,18.671,0,0,1,21.494,3.17ZM13.684,4.9A115.875,115.875,0,0,1,20.491,15.5,68.859,68.859,0,0,1,3.52,17.74,18.443,18.443,0,0,1,13.684,4.9ZM3.124,21.517v-.559a67.085,67.085,0,0,0,18.859-2.611c.536,1.026,1.026,2.075,1.492,3.124-.233.07-.489.14-.723.21-9.464,3.054-14.5,11.4-14.919,12.1A18.317,18.317,0,0,1,3.124,21.517Zm18.37,18.346a18.23,18.23,0,0,1-11.26-3.87c.326-.676,4.056-7.856,14.407-11.469.046-.023.07-.023.116-.047a75.891,75.891,0,0,1,3.917,13.917,18.059,18.059,0,0,1-7.18,1.468Zm10.234-3.147a78.967,78.967,0,0,0-3.567-13.078,26.807,26.807,0,0,1,11.423.793,18.2,18.2,0,0,1-7.856,12.285Z" transform="translate(1628.013 30.506)" fill-rule="evenodd"/>
    <path id="Facebook2_colored_svg" d="M141.275,24l1.184-7.721h-7.408v-5.01c0-2.112,1.035-4.171,4.353-4.171h3.368V.522A41.074,41.074,0,0,0,136.793,0c-6.1,0-10.089,3.7-10.089,10.392v5.885h-6.782V24H126.7V42.663a27,27,0,0,0,8.347,0V24Z" transform="translate(1326.513 30.506)"/>
    <g id="Instagram_colored_svg" transform="translate(1489.285 30.507)">
      <path id="Path_4" data-name="Path 4" d="M21.494,0c-5.837,0-6.569.025-8.862.129a15.775,15.775,0,0,0-5.217,1A10.535,10.535,0,0,0,3.607,3.608,10.535,10.535,0,0,0,1.128,7.414a15.774,15.774,0,0,0-1,5.217C.025,14.924,0,15.656,0,21.494s.025,6.569.129,8.862a15.774,15.774,0,0,0,1,5.217,10.537,10.537,0,0,0,2.479,3.807,10.536,10.536,0,0,0,3.807,2.479,15.777,15.777,0,0,0,5.217,1c2.293.1,3.024.129,8.862.129s6.569-.025,8.862-.129a15.776,15.776,0,0,0,5.217-1,10.99,10.99,0,0,0,6.286-6.286,15.776,15.776,0,0,0,1-5.217c.1-2.293.129-3.024.129-8.862s-.025-6.569-.129-8.862a15.776,15.776,0,0,0-1-5.217,10.535,10.535,0,0,0-2.479-3.807,10.537,10.537,0,0,0-3.807-2.479,15.774,15.774,0,0,0-5.217-1C28.063.025,27.331,0,21.494,0Zm0,3.873c5.739,0,6.419.022,8.685.125a11.9,11.9,0,0,1,3.991.74,6.66,6.66,0,0,1,2.471,1.608,6.659,6.659,0,0,1,1.608,2.471,11.893,11.893,0,0,1,.74,3.991c.1,2.266.125,2.946.125,8.685s-.022,6.419-.125,8.685a11.893,11.893,0,0,1-.74,3.991,7.118,7.118,0,0,1-4.079,4.079,11.891,11.891,0,0,1-3.991.74c-2.266.1-2.946.125-8.685.125s-6.419-.022-8.685-.125a11.891,11.891,0,0,1-3.991-.74,6.66,6.66,0,0,1-2.471-1.608A6.658,6.658,0,0,1,4.738,34.17,11.893,11.893,0,0,1,4,30.179c-.1-2.266-.125-2.946-.125-8.685s.022-6.419.125-8.685a11.893,11.893,0,0,1,.74-3.991A6.659,6.659,0,0,1,6.346,6.346,6.661,6.661,0,0,1,8.817,4.738,11.9,11.9,0,0,1,12.808,4c2.266-.1,2.946-.125,8.685-.125Z" transform="translate(0 0)"/>
      <path id="Path_5" data-name="Path 5" d="M135.577,142.742a7.164,7.164,0,1,1,7.164-7.164A7.164,7.164,0,0,1,135.577,142.742Zm0-18.2a11.037,11.037,0,1,0,11.037,11.037A11.037,11.037,0,0,0,135.577,124.54Z" transform="translate(-114.084 -114.084)"/>
      <path id="Path_6" data-name="Path 6" d="M367.09,91.206a2.579,2.579,0,1,1-2.579-2.579A2.579,2.579,0,0,1,367.09,91.206Z" transform="translate(-331.545 -81.186)"/>
    </g>
  </g>
</svg>
