<svg width="820" height="818" viewBox="0 0 820 818"><g transform="translate(-870 -113)"><g transform="translate(1075 316)" fill="#fff" stroke="rgba(197,46,29,0)" stroke-width="1"><rect width="205" height="205" rx="15" stroke="none"/><rect x="0.5" y="0.5" width="204" height="204" rx="14.5" fill="none"/></g><g transform="translate(1280 521)" fill="#ff9574" stroke="rgba(197,46,29,0)" stroke-width="1"><rect width="205" height="205" rx="15" stroke="none"/><rect x="0.5" y="0.5" width="204" height="204" rx="14.5" fill="none"/></g><g transform="translate(1280 113)" fill="tomato" stroke="rgba(197,46,29,0)" stroke-width="1"><rect width="205" height="205" rx="15" stroke="none"/><rect x="0.5" y="0.5" width="204" height="204" rx="14.5" fill="none"/></g><g transform="translate(870 521)" fill="#c52e1d" stroke="rgba(197,46,29,0)" stroke-width="1"><rect width="205" height="205" rx="15" stroke="none"/><rect x="0.5" y="0.5" width="204" height="204" rx="14.5" fill="none"/></g><g transform="translate(1075 726)" fill="tomato" stroke="rgba(197,46,29,0)" stroke-width="1"><rect width="205" height="205" rx="15" stroke="none"/><rect x="0.5" y="0.5" width="204" height="204" rx="14.5" fill="none"/></g><g transform="translate(1485 316)" fill="#c7c7c7" stroke="rgba(197,46,29,0)" stroke-width="1"><rect width="205" height="205" rx="15" stroke="none"/><rect x="0.5" y="0.5" width="204" height="204" rx="14.5" fill="none"/></g><g transform="translate(1280 316)" fill="#c7c7c7" stroke="rgba(197,46,29,0)" stroke-width="1"><rect width="205" height="205" rx="102.5" stroke="none"/><rect x="0.5" y="0.5" width="204" height="204" rx="102" fill="none"/></g><g transform="translate(1075 521)" fill="#c52e1d" stroke="rgba(197,46,29,0)" stroke-width="1"><rect width="205" height="205" rx="102.5" stroke="none"/><rect x="0.5" y="0.5" width="204" height="204" rx="102" fill="none"/></g></g></svg>