<svg id="Outline" xmlns="http://www.w3.org/2000/svg" xmlns:xlink="http://www.w3.org/1999/xlink" viewBox="0 0 391 382">
  <defs>
    <style>
      .cls-1, .cls-6 {
        fill: #fff;
      }

      .cls-1 {
        opacity: 0.11;
      }

      .cls-2 {
        mask: url(#mask);
      }

      .cls-3 {
        fill: blue;
      }

      .cls-4 {
        fill: #ccc;
      }

      .cls-5 {
        fill: #ff1d25;
      }
    </style>
    <mask id="mask" x="-368.56" y="-62.97" width="938.59" height="799.84" maskUnits="userSpaceOnUse">
      <g transform="translate(-5 -9)">
        <g>
          <path class="cls-1" d="M128.88,31.76a372.2,372.2,0,0,0-85.4,23.69q-12.16,4.75-24.16,9.9Q4,71.5-11.06,78.4L-35.95,96.47l-9.72,16.68q-8.14,14-15.53,28.47a548.54,548.54,0,0,0-24.26,53c-6,15.29-11.64,30.74-16.92,46.31-6.63,19.56-12.11,39.47-17.85,59.3q-4.74,16.86-10.21,33.5l-7.31,19.94-8,17.4a78.87,78.87,0,0,1-17.47,23.51l11.36-9.73-20.57,17,11.72-9.22-9.25,6.26q-7.09,4.2-14.54,7.69c-6.69,3.26-13.42,6.41-20,9.8q-9.17,4.59-18,9.76l-10.18,5.76-10,6.89a92.31,92.31,0,0,0-14.5,13.28A66.79,66.79,0,0,0-266.55,463a75.87,75.87,0,0,0-8.77,12.84,135.75,135.75,0,0,0-12.12,23l-7.07,18.41c-2.31,6.87-4.19,13.87-6.11,20.86A142.22,142.22,0,0,0-305.08,558a265.46,265.46,0,0,0-5.41,37.78q9.42,8.7,22.11,2.91a406.35,406.35,0,0,0,46.68-18.57q28.84-12.27,56.71-26.7a87.77,87.77,0,0,0,36.31-24.86,223.72,223.72,0,0,1,13.05-31.36A185.16,185.16,0,0,1-120.15,472C-109.84,458-97.43,445.92-84,435c13.08-10.66,27.08-20.16,39.83-31.23a181.94,181.94,0,0,0,19.28-19.09A166.84,166.84,0,0,0-7.41,360.12,261.82,261.82,0,0,0,7.72,329.64Q16,310.74,23,291.31c10-26.81,19.17-53.9,30.49-80.18,10.78-25,23-49.74,38.09-72.53a263,263,0,0,1,22-29.07,97.65,97.65,0,0,1,25.74-22.65L125.56,93.7a267.63,267.63,0,0,1,60.85-22.51q48.39-15,97.07-29,14.61-1,19.18-13.65Q296,16.92,281.4,18.43a665.62,665.62,0,0,0-76.54,3.51A666.92,666.92,0,0,0,128.88,31.76Z"/>
          <path class="cls-1" d="M116.62,112.91,12.08,154.45l-16.16,7.17a196.37,196.37,0,0,0-75.78,43.14,45.48,45.48,0,0,0-16.58,15.17,83.77,83.77,0,0,0-8.45,13.71A72.81,72.81,0,0,0-115,254.52c-7.1,18.44-13.5,37.2-19.88,55.9-11.27,33-21.85,66.22-30.53,100-5.19,20.22-9.65,40.59-15.35,60.68a167.32,167.32,0,0,1-6.77,21.3,129.38,129.38,0,0,1-11.82,26.8l4.53-7.77a47.9,47.9,0,0,1-18.71,20.07l32.65-18.42-29.68,14.67,39.87-17.24-30.88,11.55,20.15-7.38c-19.5,5.77-39.25,10.89-58.39,17.83-11.87,4.31-23.66,8.69-35,14.34l-12.77,6.82a65.86,65.86,0,0,0-15,10.71,49.8,49.8,0,0,0-9.53,9.49,54.91,54.91,0,0,0-7.11,8.7q-5.81,8-11.2,16.35l-8.12,15.42-7.33,18-6.38,20.79A253.63,253.63,0,0,0-359.29,690a308.71,308.71,0,0,0-4.13,42.5q-1.12,8.52,6.52,12.43,12.39,3.14,23.57-4.14a304.58,304.58,0,0,0,38.87-20.39q12.34-5.08,16.8-17a249.39,249.39,0,0,1,3.27-37.13,206.56,206.56,0,0,1,6.29-32.48l5.87-18.57a162.3,162.3,0,0,1,14.76-30.44l-4.86,6.91,13.48-19-4.9,6.86a79.56,79.56,0,0,1,14.2-14.38,76.06,76.06,0,0,1,15.32-11L-227,560.93l10.79-5.36L-235.34,563l11.05-4-19.77,6.19q13.22-2.93,26.39-6.06A147.93,147.93,0,0,0-199.19,554l20.25-7.89A185.13,185.13,0,0,0-154,533.71a172.67,172.67,0,0,0,18.34-11.61l9.64-8.92A175.18,175.18,0,0,0-114.15,495a121.13,121.13,0,0,0,10.25-21.27l6.79-19.83q4.85-16.41,8.74-33.07,4.23-17.31,8.38-34.64l6.47-23.86c6.47-23.21,14.2-46,21.68-68.89l7-21.49q5.69-20,12.66-39.58l-4.6,6.72,18.29-26.66-4.82,6.7L12.79,194.2l-14.06,6.72,85.54-40.15-16.16,7.17,88-36.64q10.53-2.24,14.38-11.73a14.21,14.21,0,0,0-3.89-13.48q-8.29-6-18.41-2.28A170.73,170.73,0,0,0,116.62,112.91Z"/>
          <path class="cls-1" d="M53.33,13.5,30.22,28.41l.48,15.11L23.78,60,14.6,77.88C8.13,90.67,1.83,103.56-4,116.64c-7.75,17.3-14.82,34.88-21.45,52.63q-8.23,22-15.41,44.41c-4.69,14.6-8.93,29.34-13.43,44q-3,10.5-6.77,20.75a153.54,153.54,0,0,1-7.32,19.13,91.6,91.6,0,0,1-8.18,16.95,84.81,84.81,0,0,1-14.17,20.77L-79,324.64l-9.29,8.11-9.83,6.61c-8,5.06-16.84,9-25.31,13.22-6.93,3.46-13.74,7.06-20.35,11.09a173.93,173.93,0,0,0-16.66,11.09A154.31,154.31,0,0,0-181.95,391l-9.56,9.6-9.15,11.18-8.65,12.91-8,14.76-7.29,16.72a194.09,194.09,0,0,0-9,29.17,150,150,0,0,0-4.69,21.9A257.32,257.32,0,0,0-243,543.71q28.61,8.68,57.88-2.72,104.39-23.24,207.75-50.75,103.67-26.3,206.16-56.86,31.11-4.29,51.87-25.81c13.5-11.94,26.67-24.17,39-37.28a448.94,448.94,0,0,0,36-43.13,450.88,450.88,0,0,0,38.08-62.32c11.84-23.33,21.42-47.69,32.59-71.33a330.21,330.21,0,0,1,35.13-58c13.67-18.1,29.3-34.73,45.67-50.43C520.8,72,535.33,59.88,550,47.88A140.35,140.35,0,0,0,563.84,36,17.06,17.06,0,0,0,570,28.49,12.77,12.77,0,0,0,573,21q2.6-7.18-3.08-13.67Q545.58-7.88,515.61-3.95,413.54-6.51,311.43-4.68q-102.12.6-204.11,5.6Q77.26-2.3,53.33,13.5Z"/>
          <path class="cls-1" d="M47,57.86,1.68,76.29-9.18,84.72A133.55,133.55,0,0,0-23.84,108q-4.59,8.67-9.43,17.2c-7,12.58-13.74,25.27-20,38.22C-61.7,180.65-69.52,198.19-76.55,216c-5.86,14.88-11.45,29.88-16.63,45s-9.78,30.54-14.47,45.88L-114.5,329a264.42,264.42,0,0,1-11,30.07,100.1,100.1,0,0,1-8.19,17.44,89.36,89.36,0,0,1-13.94,21.25l8.32-11A67.46,67.46,0,0,1-153,398.28,87.19,87.19,0,0,1-167.37,407l32.07-16Q-161,404.08-187,416.64a211,211,0,0,0-19.74,11,144.7,144.7,0,0,0-19.46,14.78q-10,9.14-19.49,18.74c-14.75,15.94-25.58,35.14-33.7,55.19a272.47,272.47,0,0,0-12.46,40,352.53,352.53,0,0,0-7.66,49q24.54,6.88,48.51-5.83,59.91-19.83,118.76-42.59,73.93-27.3,147-56.81a520.87,520.87,0,0,0,99.29-45.89l17-20.26-8.94,10.46,17.55-19.72-9.26,10.16c11.88-12.79,23.89-25.42,35.89-38.09,9.4-9.92,18.59-20,27.43-30.45a404,404,0,0,0,26.79-35.55,356.81,356.81,0,0,0,27.59-49.92c7.31-15.79,13.73-31.95,20.51-48A506.38,506.38,0,0,1,293,183.54a418.25,418.25,0,0,1,28-43.58q7.4-10.29,15.44-20.07,10.44-12.84,21.78-24.9l-9.52,9.93,20.72-21.37-9.73,9.7,21.08-20.46-9.94,9.48,21.37-19.53L382.13,72c8.89-7.62,17.84-15.15,27-22.5A63.54,63.54,0,0,1,421,41.1q12.93-8.37,26.6-15.49,21.26-9.52-1.61-13.93A458.51,458.51,0,0,0,343.5,16.2q-98,9.77-195.68,22.66A458.67,458.67,0,0,0,47,57.86Z"/>
          <path class="cls-1" d="M130.44.42,34.75,16.15A307.86,307.86,0,0,0-22.7,35.81,94.2,94.2,0,0,0-43.88,47.76,54.27,54.27,0,0,0-67.81,66.52a55.63,55.63,0,0,0-17,26.78l-8.81,19.14q-12.8,28.51-23.25,57.93-8.82,24.82-16.24,50.09C-139.16,241-144.21,261.7-150,282.25l-6.69,22.54-7.17,20.13a92,92,0,0,1-12.37,23.8A43.06,43.06,0,0,1-189,363.34l8.45-7.34-8.61,6.27a85.61,85.61,0,0,1-14,7c-6.5,2.78-13.13,5.18-19.75,7.66a213.88,213.88,0,0,0-25.28,11.15l-10,5.62a79.76,79.76,0,0,0-14.91,10.06,54.91,54.91,0,0,0-9.62,8.59A60.71,60.71,0,0,0-292,422.83a109.85,109.85,0,0,0-13.23,19.52l-8.25,16.55-7.5,19.47-6.45,22.46c-4.72,18.12-6.56,35.55-8.66,54q-3.92,8.82,4.65,13.24a46.36,46.36,0,0,0,31.14-3.21,543.73,543.73,0,0,0,55.33-19.42,46.41,46.41,0,0,0,26.32-17,268.69,268.69,0,0,1,12.94-44.94,184.11,184.11,0,0,1,17-33.48,147.45,147.45,0,0,1,37-38.53c12.44-9,26.09-16.11,39.1-24.25,13.75-8.6,26.43-18.39,36.72-31.05C-62.41,339.65-53.58,319.77-46,300c11-28.77,19.1-58.57,29.23-87.65C-6.12,181.65,6,151.22,21,122.4A357.39,357.39,0,0,1,39.44,90.57,63,63,0,0,1,68,66.34L57.66,71.65a307,307,0,0,1,77.92-25.39A1149.08,1149.08,0,0,1,249.67,22.94q12.41-1,15.64-12.1-3.48-11-15.9-11.75a403.84,403.84,0,0,0-59.52-2.5A403.28,403.28,0,0,0,130.44.42Z"/>
          <path class="cls-1" d="M63.24-22.12,28.7-8.67,15.84-2.15Q11.1,9.88,5.48,21.52,1.57,30.33-3,38.79c-6.44,12.5-12.72,25.07-18.6,37.85-7.83,17-15.14,34.28-21.71,51.82-5.46,14.61-10.67,29.33-15.49,44.16s-9.05,29.88-13.43,44.87l-6.43,21.57a233.54,233.54,0,0,1-10.64,29.42,92.35,92.35,0,0,1-8.12,17.14,85.78,85.78,0,0,1-14.14,21.05l10.33-9.63-9.31,8.3-9.89,6.8c-8.07,5.18-17,9.21-25.63,13.45-7,3.46-13.94,7.05-20.67,11.05a162.19,162.19,0,0,0-16.17,10.52,152.18,152.18,0,0,0-21,15.56l-9.63,9.49-9.18,11.09-8.63,12.82-8,14.69-7.17,16.67a189.36,189.36,0,0,0-8.78,29.14,148.11,148.11,0,0,0-4.46,21.9A256,256,0,0,0-264,515.07q24,10.65,50.43,1.76,91.28-15,181.73-34.3Q58.91,464.42,148.65,442q27.78-2.31,45.6-21.6c25.48-27,51.64-53.36,74.37-82.77a432.72,432.72,0,0,0,38.75-59.45c12.32-22.88,22.14-46.94,33-70.54a436.92,436.92,0,0,1,34.47-61.34,465.15,465.15,0,0,1,44.83-56.2A553.44,553.44,0,0,1,462.3,49.18Q469.82,43,477,36.37a57.85,57.85,0,0,0,8.11-8q3.6-4.1,7.48-7.89A83.78,83.78,0,0,0,504.5,6.3Q484.7-9.9,457.56-7.92q-63.09-6-126.39-8.9-79-4.82-158.11-7.27A524.81,524.81,0,0,0,63.24-22.12Z"/>
          <path class="cls-1" d="M66.13,103,15.91,125.88l-9.52,9.36L-3,150.09l-8.63,16.21c-6.87,12.48-14.19,24.7-20.75,37.36-8.86,17.06-16.84,34.55-24.33,52.25a968.43,968.43,0,0,0-33.18,91.23c-4.57,14.79-9.12,29.58-14.22,44.21a183.36,183.36,0,0,1-7.55,19.88A153.3,153.3,0,0,1-124.2,436.9l7-11.71A54.88,54.88,0,0,1-131,442.48,63,63,0,0,1-144.56,453l29.38-19.3L-163.45,463l30-17.7L-173,467.58l30.31-16.94A348.37,348.37,0,0,0-202,485l-9.57,7.92a175.56,175.56,0,0,0-18.15,19.43,119,119,0,0,0-13.59,17.33,138.55,138.55,0,0,0-12.76,21.09A180,180,0,0,0-267.34,577a213.34,213.34,0,0,0-9.54,30.72,362.21,362.21,0,0,0-8.48,49.49q24.6,4.77,46.93-9.87,56.73-24.74,112.13-52.29,69.72-33.33,138.39-68.79a500.74,500.74,0,0,0,92.72-53.92c8-10,16-19.78,24.58-29.31,8.76-9.79,17.79-19.33,26.64-29,17.47-19.15,34.81-38.6,49.85-59.74a367.28,367.28,0,0,0,21-33.22c8.23-14.68,15.11-30.28,21.57-45.79,6.89-16.52,13.44-33.11,21.28-49.22l8.24-16.61q8.16-15.9,17.5-31.13l-7.18,11.55,16.5-26.05-7.35,11.4c9.6-14.17,19.33-28.1,30.11-41.41a415.54,415.54,0,0,1,33-36.52c10.89-10.59,22.26-20.64,33.94-30.35L405,58.25a377.34,377.34,0,0,1,37.17-22.49q19.15-11.34-3-13.71a415.2,415.2,0,0,0-96.59,13.49q-91.83,18.32-183,39.71A415.2,415.2,0,0,0,66.13,103Z"/>
          <path class="cls-1" d="M84.5-46.73A928.4,928.4,0,0,0-13.95-35.26Q-51.6-32.59-76.58-6.32a55.63,55.63,0,0,0-14.8,24q-10.77,19.09-20.32,38.84c-13.79,28.9-25.1,59-35.2,89.4q-7.87,23.64-14.55,47.63-6.41,22.68-14,45l3.1-8.11A191.23,191.23,0,0,1-184.24,259a106.58,106.58,0,0,1-13.47,23l-8.7,9.12a68,68,0,0,1-14.11,10,97.27,97.27,0,0,1-14.64,7.53l-10,4.32c-10.18,4.43-20.72,8.94-30,15.13l-9.76,7A91.25,91.25,0,0,0-299,348.5a208.08,208.08,0,0,0-18.77,24.07,135.53,135.53,0,0,0-11.87,22.31,170,170,0,0,0-10.42,26.87l-5.73,21.11a374.4,374.4,0,0,0-7.9,49.7q8.52,10.49,22.78,6.67a479.48,479.48,0,0,0,53.69-10.39q33.38-7.21,66.17-16.73a102.88,102.88,0,0,0,44.14-18.39l8.1-16.36,8.34-14.63a244.53,244.53,0,0,1,21.53-30.11c10.76-13,22.79-24.72,35.4-35.91,13.58-12,27.64-23.75,39.6-37.48C-41.8,305.28-32.24,289.46-24,273c7.8-15.65,14.68-31.81,21.53-47.89C10.35,195,23,164.73,38,135.62A534.81,534.81,0,0,1,80.87,65.18a251,251,0,0,1,29.19-33.27,53.59,53.59,0,0,1,12.59-10.36A56.55,56.55,0,0,1,152.24,9.19l-17.9,3.5Q196.07,2.69,258-6.16q16,2.38,24.44-9.65-6-13.41-22.17-14.1-43.49-8-87.57-11.56Q128.72-46.3,84.5-46.73Z"/>
          <path class="cls-1" d="M58.93,62.53l-22.69,16,.48,14-7.16,16.21-9.5,17.88C13.33,139.51,6.77,152.46.65,165.6c-8.12,17.41-15.56,35.12-22.56,53q-8.68,22.21-16.3,44.8c-5,14.75-9.52,29.64-14.28,44.46q-3.21,10.61-7.11,21a166.29,166.29,0,0,1-7.57,19.29,96.86,96.86,0,0,1-8.31,17.07A87.82,87.82,0,0,1-89.59,386l11-11.81-9.07,8A97.33,97.33,0,0,1-102,391.32c-6.38,3.56-12.94,6.77-19.48,10A222.85,222.85,0,0,0-146,415.17c-9.5,6.36-18.19,13.87-26.92,21.22a68.93,68.93,0,0,0-9.54,8.85,74.12,74.12,0,0,0-9.26,10.37A125.56,125.56,0,0,0-205,474.12l-8.2,14.79-7.56,16.78-6.77,18.85a233.17,233.17,0,0,0-8.12,32.57A268.57,268.57,0,0,0-241.22,594q29.91,5.79,58.49-8.51Q-109.3,562-36.9,535.6,54,503.71,144,469.6a775.36,775.36,0,0,0,122.88-52.29c18.68-17.82,38.14-34.88,55.69-53.84a417.28,417.28,0,0,0,40.27-51,447.35,447.35,0,0,0,32.27-57.22c5-10.45,9.62-21,14.17-31.68,5.58-13.05,10.84-26.44,17.34-39.06a348.37,348.37,0,0,1,36.6-57.39c6.36-8,13.2-15.65,20.18-23.13s14.34-15,21.83-22.18c15.78-15.14,32.68-29,49.62-42.78A118.57,118.57,0,0,0,564.27,31a19.85,19.85,0,0,0,6.6-7.44,12,12,0,0,0,3.24-7.1q2.82-6.46-3-12.12-25.67-12.69-55-5.76Q414.47,6.31,313.3,18.43,212,29.32,111.26,44.58,81.08,44.42,58.93,62.53Z"/>
          <path class="cls-1" d="M49.48-3.73-19.9,10.38l-9.55,7L-44.1,32.33-51.61,48.7-61.7,66.58-71.94,85.64c-8.61,16.86-16.15,34.24-23.21,51.78-11.95,29.67-22.24,60-31.19,90.66-4.3,14.77-8.58,29.53-13.43,44.12a175.17,175.17,0,0,1-7.3,20,151.63,151.63,0,0,1-12.33,26l6.37-9.38-16,22.92,6.5-9.29-9,8.65A86,86,0,0,1-186,341c-6.5,3.79-13.22,7.1-20,10.37-8.58,4.14-17.2,8.31-25.34,13.29a152.09,152.09,0,0,0-24.06,18.28c-3,2.78-6,5.59-9,8.46a65.88,65.88,0,0,0-9.39,9.93,110,110,0,0,0-13.29,17.91l-8.07,14.47-7.33,16.54-6.44,18.7a225.93,225.93,0,0,0-7.46,32.55,275.17,275.17,0,0,0-4.89,37.1q17.35,10.11,37.52,1.91,65.66-14.4,130.25-33.07Q-88.62,489.91-25,468.22q21.5-3.44,31.11-21.07,8.1-11.55,17.05-22.48,8.49-10.34,17.52-20.21c8.85-9.74,18-19.18,27.07-28.73,12.63-13.32,25-26.88,36.13-41.53a300.24,300.24,0,0,0,28.34-45.64c9.11-18,16.35-36.68,24.34-55.16,9-20.83,18.81-41.39,29.56-61.39a534.65,534.65,0,0,1,34.19-55.4q10.27-14.6,21.62-28.38,10.71-13,22.56-25l-8.22,8.08L276.15,52.2l-8.45,7.86,20.35-18-8.68,7.64A167.07,167.07,0,0,1,303.53,32a317,317,0,0,1,65.41-18.76q17.73-6.85.13-14a293.18,293.18,0,0,0-81.35-8Q209.34-11.13,131-10.27A293,293,0,0,0,49.48-3.73Z"/>
          <path class="cls-1" d="M110.12-53.45A401.71,401.71,0,0,0,4.06-44.82l-48.12,12.4q-22.27,2.73-32.9,19Q-81.62-7-86.15-.53a82.44,82.44,0,0,0-8.74,15.79Q-101.83,29.49-109,43.63c-5.46,11.51-10.69,23.3-15.46,35.11-6.24,15.43-12.26,30.94-17.63,46.69l-8.29,25.12q-7.35,24.57-14.63,49.15l-7.25,22.71a186.63,186.63,0,0,1-11.61,28.89,101.81,101.81,0,0,1-13,22.59,77.9,77.9,0,0,1-17.61,16.24l10.64-6.37-20.12,11.89,11-5.89-20.76,10.35,11.39-5.44-21.29,9.43,11.71-5.05q-16,6.36-31.63,13.52a121.07,121.07,0,0,0-19.61,11.78,130.8,130.8,0,0,0-27.65,29.14,211.29,211.29,0,0,0-19.92,36.87,264.78,264.78,0,0,0-12.86,39.5,395.22,395.22,0,0,0-8.76,50.92q5.73,9.71,17.66,7.63a261.45,261.45,0,0,0,39.53-7.7q24.51-5.52,48.4-13.34a58.57,58.57,0,0,0,31.71-16,216,216,0,0,1,16.51-37.22,229,229,0,0,1,17-26.22,211.28,211.28,0,0,1,35.31-36.35c11.65-9.52,24.24-17.83,35.83-27.43a164.45,164.45,0,0,0,17.41-16.39A152.39,152.39,0,0,0-76.5,286a262.52,262.52,0,0,0,15.09-28.1q8.5-17.78,15.78-36.07c12-29.53,22.58-59.61,35.6-88.72C2,106.2,15.73,80,32.53,55.76A296.62,296.62,0,0,1,53.77,28.45,59.78,59.78,0,0,1,77.64,9.76L64.52,13.62,119.08-.78,104.9,2.64q69.42-11,139.52-16.19Q258-12.17,264-23.25q-3.21-12.16-16.78-14A543.54,543.54,0,0,0,179-48.49,542.61,542.61,0,0,0,110.12-53.45Z"/>
          <path class="cls-1" d="M46.67,80.78l-32.45,18L2.13,108a135.86,135.86,0,0,1-9.89,22.83q-4.28,8.79-9.1,17.3c-6.94,12.72-13.68,25.53-20,38.56-8.46,17.38-16.41,35-23.58,53-6,14.95-11.68,30-17,45.23s-10,30.63-14.85,46l-7,22.11a261.51,261.51,0,0,1-11.22,30,98.9,98.9,0,0,1-8.27,17.31,87.12,87.12,0,0,1-14,20.93l9.87-12a84.94,84.94,0,0,1-18.28,14.18l36.62-19.83-46.14,24.95,36.95-19q-33.18,16.21-66,33.22a150.63,150.63,0,0,0-19.35,12.55q-10.77,8.79-20.92,18.3a107.7,107.7,0,0,0-14,15,123.27,123.27,0,0,0-13.34,18.46,214.07,214.07,0,0,0-15.95,31.78,282.68,282.68,0,0,0-12.84,40.4,363.34,363.34,0,0,0-8.2,49.49q28.71,5.06,55.53-9.82,69-25,136.88-53,85.23-33.8,169.56-69.77a702.37,702.37,0,0,0,114.76-54.8L211,420.94l-10.45,11.35c26.55-27.77,54-54.88,77.46-85.4a388.51,388.51,0,0,0,30.22-45.07c8.28-14.62,15.71-29.64,22.55-45,7-15.63,13.15-31.66,20.52-47.12a467.46,467.46,0,0,1,26-46.92,406.72,406.72,0,0,1,28.89-39.68q10.33-12.7,21.45-24.73Q438.47,86.71,450,75.76L438.75,86.23l22.55-21L449.89,75.52l22.7-20.13L461,65.38,483.53,46.1a113.45,113.45,0,0,0,13.74-12.54c2.59-2.6,5.14-5.26,7.63-8a52,52,0,0,0,10.31-13.79Q490.63.22,463,8.21q-67.41,8-134.37,19-83.82,12.6-167.26,27.56A601,601,0,0,0,46.67,80.78Z"/>
        </g>
      </g>
    </mask>
  </defs>
  <g class="cls-2">
    <g>
      <path id="Blue" class="cls-3" d="M220,83.33V344l-7-17-2-4-3-3-6-9-5-6-4-6-4-7-3-8-2-4-2-6-2-3-1-2-2.7-2.7-.16-.16L176,266l-2-1-4-4-5-3-3-5-2-3H141l-7-4-3,4-7,1-8,16,1,3-4,3-4,6-10-4-2-2-5-2-3-3-8-3-6-6-7-5-5-10-4-16-3-7-8-7-4-2-3-2L28,197l-4-5-4-1-5-5-2-5-2-2-4-2-2-3v-4l106,1V9h92V78l3,1,6,5Z" transform="translate(-5 -9)"/>
      <polygon id="White" class="cls-4" points="391 193 391 199 215 199 215 74.33 219 74 222 81 231 83 253 86 259 90 260 93 263 95 267 90 273 93 276 97 281 94 283 99 290 92 299 93 308 98 312 98 314 94 329 92 342 92 348 94 349 97 357 101 363 103 366 105 376 105 376 159 377 161 381 167 383 173.33 387 181 391 193"/>
      <polygon id="Red" class="cls-5" points="391 199 391 203 386 212 386 231 383 238 380 239 380 242 382 246 376 246 372.09 248.69 368.09 249.69 365 251 361 253 358 257 354 259 350 262 347 264 344 268 339 273 336 275 332 277 329 279 324 282 312 288 304 294 299 298 294 304 291 307 289 311 286 314 283 318 282 321 279 328 279 342 280 351 283 362 285 377 276 382 252 375 247 371 238 368 224 362 222 350 218 342 215 335 215 199 391 199"/>
      <polygon id="Star" class="cls-6" points="142 148.84 152.99 183.87 189.7 183.5 159.79 204.78 171.48 239.58 142 217.7 112.52 239.58 124.21 204.78 94.3 183.5 131.01 183.87 142 148.84"/>
    </g>
  </g>
</svg>
